Coordinates
version=1
nRows=49
nColumns=12
inDegrees=yes

Units are S.I. units (second, meters, Newtons, ...)
Angles are in degrees

endheader
time	SC_y	SC_z	SC_x	AC_y	AC_z	AC_x	GH_y	GH_z	GH_yy	EL_x	PS_y
       0.0              -22.42          34.89          77.23          35.42          -7.67         -13.85          67.57          30.32          156.0          127.9          135.1
  0.002317              -22.42          34.89          77.23          35.42         -7.669         -13.85          67.55          30.32          155.9          127.9          135.1
  0.004633              -22.43          34.89          77.22          35.43         -7.668         -13.85          67.52          30.32          155.9          127.9          135.1
   0.00695              -22.43          34.89          77.22          35.43         -7.667         -13.85          67.49          30.32          155.9          127.9          135.1
  0.009267              -22.44          34.89          77.21          35.43         -7.665         -13.85          67.46          30.32          155.9          127.9          135.1
   0.01158              -22.45          34.89          77.21          35.43         -7.664         -13.85          67.42          30.32          155.9          127.9          135.1
    0.0139              -22.45          34.89          77.21          35.44         -7.663         -13.85          67.39          30.33          155.8          127.9          135.1
   0.01622              -22.46          34.89           77.2          35.44         -7.661         -13.85          67.35          30.33          155.8          127.9          135.1
   0.01853              -22.47          34.89           77.2          35.44         -7.659         -13.85          67.31          30.33          155.8          127.8          135.1
   0.02085              -22.48          34.88          77.19          35.45         -7.658         -13.85          67.26          30.33          155.8          127.8          135.0
   0.02317              -22.48          34.88          77.19          35.45         -7.656         -13.85          67.21          30.33          155.7          127.8          135.0
   0.02548              -22.49          34.88          77.18          35.46         -7.654         -13.85          67.16          30.34          155.7          127.8          135.0
    0.0278               -22.5          34.88          77.18          35.46         -7.652         -13.85          67.11          30.34          155.7          127.8          135.0
   0.03012              -22.51          34.88          77.17          35.47         -7.649         -13.85          67.05          30.34          155.6          127.8          135.0
   0.03243              -22.53          34.88          77.16          35.47         -7.647         -13.85          66.98          30.34          155.6          127.8          135.0
   0.03475              -22.54          34.87          77.15          35.48         -7.644         -13.85          66.91          30.35          155.5          127.7          135.0
   0.03707              -22.55          34.87          77.14          35.49         -7.641         -13.85          66.83          30.35          155.5          127.7          134.9
   0.03938              -22.57          34.87          77.14          35.49         -7.638         -13.86          66.75          30.35          155.4          127.7          134.9
    0.0417              -22.59          34.87          77.12           35.5         -7.634         -13.86          66.66          30.36          155.4          127.7          134.9
   0.04402               -22.6          34.86          77.11          35.51          -7.63         -13.86          66.56          30.36          155.3          127.7          134.9
   0.04633              -22.62          34.86           77.1          35.52         -7.626         -13.86          66.45          30.37          155.2          127.6          134.8
   0.04865              -22.65          34.86          77.09          35.53         -7.621         -13.86          66.33          30.37          155.2          127.6          134.8
   0.05097              -22.67          34.85          77.07          35.54         -7.616         -13.86           66.2          30.38          155.1          127.6          134.8
   0.05328               -22.7          34.85          77.06          35.56          -7.61         -13.86          66.05          30.39          155.0          127.5          134.7
    0.0556              -22.73          34.84          77.04          35.57         -7.604         -13.86          65.89          30.39          154.9          127.5          134.7
   0.05792              -22.76          34.84          77.02          35.59         -7.596         -13.86           65.7           30.4          154.8          127.4          134.6
   0.06023               -22.8          34.83          76.99           35.6         -7.588         -13.86           65.5          30.41          154.6          127.4          134.6
   0.06255              -22.84          34.82          76.97          35.62         -7.579         -13.87          65.27          30.42          154.5          127.3          134.5
   0.06487              -22.89          34.81          76.94          35.65         -7.569         -13.87          65.01          30.43          154.3          127.3          134.5
   0.06719              -22.94          34.81           76.9          35.67         -7.557         -13.87          64.71          30.45          154.1          127.2          134.4
    0.0695               -23.0           34.8          76.87           35.7         -7.544         -13.87          64.38          30.46          153.9          127.1          134.3
   0.07182              -23.07          34.78          76.82          35.74         -7.529         -13.88          63.99          30.48          153.7          127.0          134.2
   0.07414              -23.16          34.77          76.77          35.78         -7.511         -13.88          63.54           30.5          153.4          126.9          134.1
   0.07645              -23.25          34.75          76.71          35.82         -7.491         -13.88          63.02          30.52          153.0          126.8          133.9
   0.07877              -23.36          34.73          76.64          35.88         -7.467         -13.89          62.42          30.55          152.6          126.6          133.8
   0.08109              -23.49          34.71          76.56          35.94         -7.438         -13.89           61.7          30.58          152.2          126.5          133.6
    0.0834              -23.65          34.69          76.47          36.02         -7.405          -13.9          60.85          30.62          151.6          126.2          133.4
   0.08572              -23.84          34.65          76.35          36.11         -7.365         -13.91          59.83          30.67          151.0          126.0          133.1
   0.08804              -24.06          34.62          76.21          36.22         -7.316         -13.92          58.59          30.73          150.2          125.7          132.8
   0.09035              -24.34          34.57          76.04          36.35         -7.257         -13.93          57.09          30.79          149.2          125.3          132.4
   0.09267              -24.68          34.51          75.83          36.51         -7.183         -13.94          55.23          30.88          148.0          124.9          131.9
   0.09499               -25.1          34.44          75.57          36.72         -7.092         -13.96          52.91          30.98          146.6          124.3          131.3
    0.0973              -25.64          34.35          75.23          36.98         -6.976         -13.99          49.98          31.12          144.7          123.6          130.6
   0.09962              -26.32          34.24          74.81          37.31          -6.83         -14.01          46.27          31.29          142.3          122.6          129.6
    0.1019              -27.19          34.09          74.27          37.73         -6.642         -14.05          41.51           31.5          139.2          121.5          128.4
    0.1043               -28.3           33.9          73.58          38.27         -6.402          -14.1          35.41          31.78          135.3          119.9          126.8
    0.1066              -29.73          33.66           72.7          38.96         -6.094         -14.16          27.62          32.14          130.3          118.0          124.8
    0.1089              -31.52          33.36          71.59          39.82         -5.708         -14.23          17.81          32.58          124.0          115.6          122.2
    0.1112              -33.71          32.99          70.23          40.88         -5.237         -14.33          5.869          33.13          116.4          112.6          119.1
